<svg width="576" height="58" viewBox="0 0 576 58" fill="none" xmlns="http://www.w3.org/2000/svg">
<g clip-path="url(#clip0_793_383)">
<rect width="61" height="58" rx="29" transform="matrix(1 0 0 -1 515 58)" fill="#444444" fill-opacity="0.05"/>
<path fill-rule="evenodd" clip-rule="evenodd" d="M555.189 30.7633C555.708 30.2434 556 29.5386 556 28.8038C556 28.069 555.708 27.3642 555.189 26.8443L544.734 16.385C544.213 15.8651 543.508 15.5731 542.772 15.5733C542.037 15.5735 541.332 15.8658 540.812 16.386C540.292 16.9061 540 17.6116 540 18.347C540 19.0825 540.293 19.7878 540.813 20.3077L549.309 28.8038L540.813 37.2998C540.307 37.8226 540.028 38.5229 540.033 39.2499C540.039 39.977 540.331 40.6726 540.845 41.1869C541.358 41.7013 542.054 41.9932 542.781 41.9999C543.508 42.0065 544.208 41.7274 544.732 41.2225L555.191 30.7651L555.189 30.7633Z" fill="#428DFC"/>
</g>
<g clip-path="url(#clip1_793_383)">
<rect x="61" y="58" width="61" height="58" rx="29" transform="rotate(180 61 58)" fill="#444444" fill-opacity="0.05"/>
<path fill-rule="evenodd" clip-rule="evenodd" d="M21.8109 30.7633C21.2917 30.2434 21 29.5386 21 28.8038C21 28.069 21.2917 27.3642 21.8109 26.8443L32.2665 16.385C32.7867 15.8651 33.4921 15.5731 34.2276 15.5733C34.963 15.5735 35.6683 15.8658 36.1882 16.386C36.7082 16.9061 37.0002 17.6116 37 18.347C36.9998 19.0825 36.7075 19.7878 36.1873 20.3077L27.6913 28.8038L36.1873 37.2998C36.6927 37.8226 36.9725 38.5229 36.9665 39.2499C36.9605 39.977 36.6693 40.6726 36.1554 41.1869C35.6415 41.7013 34.9462 41.9932 34.2191 41.9999C33.4921 42.0065 32.7915 41.7274 32.2683 41.2225L21.8091 30.7651L21.8109 30.7633Z" fill="#428DFC"/>
</g>
<defs>
<clipPath id="clip0_793_383">
<rect width="61" height="58" rx="29" transform="matrix(1 0 0 -1 515 58)" fill="white"/>
</clipPath>
<clipPath id="clip1_793_383">
<rect x="61" y="58" width="61" height="58" rx="29" transform="rotate(180 61 58)" fill="white"/>
</clipPath>
</defs>
</svg>
