<svg width="56" height="54" viewBox="0 0 56 54" fill="none" xmlns="http://www.w3.org/2000/svg">
<g clip-path="url(#clip0_840_77)">
<rect x="56" y="54" width="56" height="53.2459" rx="26.6229" transform="rotate(180 56 54)" fill="#444444" fill-opacity="0.05"/>
<path fill-rule="evenodd" clip-rule="evenodd" d="M19.7096 28.922C19.2552 28.4671 19 27.8504 19 27.2075C19 26.5645 19.2552 25.9478 19.7096 25.4929L28.8582 16.3411C29.3133 15.8861 29.9306 15.6306 30.5741 15.6308C31.2176 15.6309 31.8348 15.8867 32.2897 16.3419C32.7447 16.797 33.0002 17.4143 33 18.0578C32.9998 18.7013 32.7441 19.3185 32.2889 19.7734L24.8549 27.2075L32.2889 34.6415C32.7311 35.0989 32.9759 35.7117 32.9707 36.3478C32.9655 36.984 32.7106 37.5926 32.261 38.0427C31.8113 38.4928 31.2029 38.7482 30.5667 38.754C29.9306 38.7599 29.3176 38.5156 28.8598 38.0739L19.7079 28.9236L19.7096 28.922Z" fill="#428DFC"/>
</g>
<defs>
<clipPath id="clip0_840_77">
<rect x="56" y="54" width="56" height="53.2459" rx="26.6229" transform="rotate(180 56 54)" fill="white"/>
</clipPath>
</defs>
</svg>
