<svg width="56" height="54" viewBox="0 0 56 54" fill="none" xmlns="http://www.w3.org/2000/svg">
<g clip-path="url(#clip0_840_73)">
<rect width="56" height="53.2459" rx="26.6229" transform="matrix(1 0 0 -1 0 53.2458)" fill="#444444" fill-opacity="0.05"/>
<path fill-rule="evenodd" clip-rule="evenodd" d="M36.2904 28.1679C36.7448 27.7129 37 27.0963 37 26.4533C37 25.8104 36.7448 25.1937 36.2904 24.7388L27.1418 15.5869C26.6867 15.132 26.0694 14.8765 25.4259 14.8766C24.7824 14.8768 24.1652 15.1326 23.7103 15.5877C23.2553 16.0429 22.9998 16.6601 23 17.3037C23.0002 17.9472 23.2559 18.5643 23.7111 19.0193L31.1451 26.4533L23.7111 33.8874C23.2689 34.3447 23.0241 34.9575 23.0293 35.5937C23.0345 36.2298 23.2894 36.8385 23.739 37.2886C24.1887 37.7386 24.7971 37.9941 25.4333 37.9999C26.0694 38.0057 26.6824 37.7615 27.1402 37.3197L36.2921 28.1695L36.2904 28.1679Z" fill="#428DFC"/>
</g>
<defs>
<clipPath id="clip0_840_73">
<rect width="56" height="53.2459" rx="26.6229" transform="matrix(1 0 0 -1 0 53.2458)" fill="white"/>
</clipPath>
</defs>
</svg>
