<svg width="88" height="17" viewBox="0 0 88 17" fill="none" xmlns="http://www.w3.org/2000/svg">
<path d="M26.0001 0.75L28.3881 5.58845L33.7276 6.36434L29.8639 10.1305L30.776 15.4485L26.0001 12.9377L21.2243 15.4485L22.1364 10.1305L18.2727 6.36434L23.6122 5.58845L26.0001 0.75Z" fill="#FFEA00"/>
<path d="M8.12514 0.75L10.5131 5.58845L15.8526 6.36434L11.9889 10.1305L12.901 15.4485L8.12514 12.9377L3.3493 15.4485L4.26141 10.1305L0.397673 6.36434L5.73722 5.58845L8.12514 0.75Z" fill="#FFEA00"/>
<path d="M43.8761 0.75L46.264 5.58845L51.6036 6.36434L47.7399 10.1305L48.652 15.4485L43.8761 12.9377L39.1003 15.4485L40.0124 10.1305L36.1486 6.36434L41.4882 5.58845L43.8761 0.75Z" fill="#FFEA00"/>
<path d="M61.7511 0.75L64.139 5.58845L69.4786 6.36434L65.6149 10.1305L66.527 15.4485L61.7511 12.9377L56.9753 15.4485L57.8874 10.1305L54.0236 6.36434L59.3632 5.58845L61.7511 0.75Z" fill="#FFEA00"/>
<path d="M79.6261 0.75L82.014 5.58845L87.3536 6.36434L83.4899 10.1305L84.402 15.4485L79.6261 12.9377L74.8503 15.4485L75.7624 10.1305L71.8986 6.36434L77.2382 5.58845L79.6261 0.75Z" fill="#FFEA00"/>
</svg>
