<svg width="19" height="20" viewBox="0 0 19 20" fill="none" xmlns="http://www.w3.org/2000/svg">
<path fill-rule="evenodd" clip-rule="evenodd" d="M10.0644 19.2952L10.053 19.2971L9.98552 19.3305L9.96652 19.3343L9.95322 19.3305L9.88577 19.2962C9.87563 19.2936 9.86803 19.2955 9.86297 19.3019L9.85917 19.3114L9.84302 19.7199L9.84777 19.739L9.85727 19.7514L9.95606 19.822L9.97032 19.8258L9.98172 19.822L10.0805 19.7514L10.0919 19.7361L10.0957 19.7199L10.0796 19.3124C10.077 19.3022 10.072 19.2965 10.0644 19.2952ZM10.3152 19.1874L10.3019 19.1893L10.1271 19.278L10.1176 19.2876L10.1147 19.2981L10.1318 19.7084L10.1366 19.7199L10.1442 19.7275L10.3351 19.8153C10.3471 19.8185 10.3563 19.816 10.3627 19.8077L10.3665 19.7943L10.3342 19.2084C10.331 19.1963 10.3247 19.1893 10.3152 19.1874ZM9.63592 19.1893C9.63173 19.1867 9.62673 19.1859 9.62195 19.187C9.61717 19.188 9.61298 19.1909 9.61027 19.195L9.60457 19.2084L9.57227 19.7943C9.5729 19.8058 9.57828 19.8134 9.58842 19.8172L9.60267 19.8153L9.79362 19.7266L9.80312 19.7189L9.80596 19.7084L9.82307 19.2981L9.82022 19.2866L9.81072 19.2771L9.63592 19.1893Z" fill="#D9D9D9"/>
<path fill-rule="evenodd" clip-rule="evenodd" d="M9.5 0C4.25315 0 0 4.27246 0 9.54313C0 14.8138 4.25315 19.0863 9.5 19.0863C14.7468 19.0863 19 14.8138 19 9.54313C19 4.27246 14.7468 0 9.5 0ZM6.175 7.15735C6.175 6.71872 6.261 6.28439 6.4281 5.87915C6.5952 5.47391 6.84012 5.1057 7.14887 4.79555C7.45762 4.48539 7.82417 4.23936 8.22758 4.0715C8.63099 3.90365 9.06335 3.81725 9.5 3.81725C9.93665 3.81725 10.369 3.90365 10.7724 4.0715C11.1758 4.23936 11.5424 4.48539 11.8511 4.79555C12.1599 5.1057 12.4048 5.47391 12.5719 5.87915C12.739 6.28439 12.825 6.71872 12.825 7.15735C12.825 8.0432 12.4747 8.89277 11.8511 9.51916C11.2276 10.1455 10.3818 10.4974 9.5 10.4974C8.61816 10.4974 7.77243 10.1455 7.14887 9.51916C6.52531 8.89277 6.175 8.0432 6.175 7.15735ZM15.4451 14.2994C14.7337 15.1978 13.8296 15.9232 12.8002 16.4215C11.7708 16.9199 10.6427 17.1784 9.5 17.1776C8.35729 17.1784 7.22916 16.9199 6.19977 16.4215C5.17037 15.9232 4.26627 15.1978 3.5549 14.2994C5.09485 13.1896 7.19625 12.4061 9.5 12.4061C11.8037 12.4061 13.9051 13.1896 15.4451 14.2994Z" fill="#D9D9D9"/>
</svg>
