<svg width="18" height="18" viewBox="0 0 18 18" fill="none" xmlns="http://www.w3.org/2000/svg">
<path fill-rule="evenodd" clip-rule="evenodd" d="M9.1372 17.5181L9.12685 17.5198L9.06562 17.5502L9.04837 17.5536L9.03629 17.5502L8.97505 17.519C8.96585 17.5167 8.95895 17.5184 8.95435 17.5242L8.9509 17.5328L8.93624 17.9037L8.94055 17.921L8.94918 17.9323L9.03888 17.9964L9.05182 17.9998L9.06217 17.9964L9.15187 17.9323L9.16222 17.9184L9.16567 17.9037L9.151 17.5337C9.1487 17.5245 9.1441 17.5193 9.1372 17.5181ZM9.3649 17.4202L9.35283 17.4219L9.19413 17.5025L9.1855 17.5112L9.18292 17.5207L9.19844 17.8933L9.20275 17.9037L9.20966 17.9106L9.38302 17.9903C9.39394 17.9932 9.40228 17.9909 9.40803 17.9834L9.41148 17.9713L9.38215 17.4393C9.37928 17.4283 9.37353 17.4219 9.3649 17.4202ZM8.74822 17.4219C8.74442 17.4196 8.73987 17.4189 8.73553 17.4198C8.7312 17.4208 8.7274 17.4234 8.72493 17.4271L8.71975 17.4393L8.69043 17.9713C8.691 17.9816 8.69589 17.9886 8.70509 17.992L8.71803 17.9903L8.89139 17.9097L8.90002 17.9028L8.9026 17.8933L8.91813 17.5207L8.91554 17.5103L8.90692 17.5017L8.74822 17.4219Z" fill="#D9D9D9"/>
<path fill-rule="evenodd" clip-rule="evenodd" d="M8.625 0C3.86141 0 0 3.87895 0 8.66416C0 13.4494 3.86141 17.3283 8.625 17.3283C13.3886 17.3283 17.25 13.4494 17.25 8.66416C17.25 3.87895 13.3886 0 8.625 0ZM5.60625 6.49812C5.60625 6.0999 5.68433 5.70557 5.83604 5.33765C5.98775 4.96974 6.21011 4.63544 6.49042 4.35385C6.77074 4.07226 7.10353 3.84889 7.46978 3.6965C7.83603 3.5441 8.22858 3.46567 8.625 3.46567C9.02143 3.46567 9.41398 3.5441 9.78023 3.6965C10.1465 3.84889 10.4793 4.07226 10.7596 4.35385C11.0399 4.63544 11.2623 4.96974 11.414 5.33765C11.5657 5.70557 11.6438 6.0999 11.6438 6.49812C11.6438 7.30238 11.3257 8.0737 10.7596 8.64239C10.1935 9.21109 9.42563 9.53058 8.625 9.53058C7.82438 9.53058 7.05655 9.21109 6.49042 8.64239C5.9243 8.0737 5.60625 7.30238 5.60625 6.49812ZM14.0225 12.9824C13.3767 13.798 12.5559 14.4566 11.6213 14.909C10.6867 15.3615 9.66246 15.5962 8.625 15.5955C7.58754 15.5962 6.56332 15.3615 5.62874 14.909C4.69415 14.4566 3.87332 13.798 3.22748 12.9824C4.62559 11.9747 6.53344 11.2634 8.625 11.2634C10.7166 11.2634 12.6244 11.9747 14.0225 12.9824Z" fill="#D9D9D9"/>
</svg>
