<svg width="90" height="23" viewBox="0 0 90 23" fill="none" xmlns="http://www.w3.org/2000/svg">
<path d="M0 6.44C0 5.4238 0.696446 4.6 1.55556 4.6H12.4444C13.3036 4.6 14 5.4238 14 6.44V21.16C14 22.1762 13.3036 23 12.4444 23H1.55556C0.696446 23 0 22.1762 0 21.16V6.44Z" fill="#222222"/>
<path d="M2.33333 1.00364C2.33333 0.449344 2.71321 0 3.18182 0H10.8182C11.2868 0 11.6667 0.449344 11.6667 1.00364V7.27636C11.6667 7.83066 11.2868 8.28 10.8182 8.28C10.3496 8.28 9.9697 7.83066 9.9697 7.27636V1.84L4.0303 1.84V7.27636C4.0303 7.83066 3.65042 8.28 3.18182 8.28C2.71321 8.28 2.33333 7.83066 2.33333 7.27636V1.00364Z" fill="#222222"/>
<path d="M2.33333 11.96C2.33333 11.4519 2.68156 11.04 3.11111 11.04C3.54067 11.04 3.88889 11.4519 3.88889 11.96V15.64C3.88889 16.1481 3.54067 16.56 3.11111 16.56C2.68156 16.56 2.33333 16.1481 2.33333 15.64V11.96Z" fill="#DDDDDD"/>
<path d="M6.22222 10.12C6.22222 9.6119 6.57045 9.2 7 9.2C7.42955 9.2 7.77778 9.6119 7.77778 10.12V17.48C7.77778 17.9881 7.42955 18.4 7 18.4C6.57045 18.4 6.22222 17.9881 6.22222 17.48V10.12Z" fill="#DDDDDD"/>
<path d="M10.1111 11.96C10.1111 11.4519 10.4593 11.04 10.8889 11.04C11.3184 11.04 11.6667 11.4519 11.6667 11.96V15.64C11.6667 16.1481 11.3184 16.56 10.8889 16.56C10.4593 16.56 10.1111 16.1481 10.1111 15.64V11.96Z" fill="#DDDDDD"/>
<path d="M30.7186 2.25825C31.1214 2.25825 31.4143 2.29515 31.6339 2.38738C31.8536 2.46117 32.0184 2.57184 32.1465 2.71942C32.2564 2.86699 32.3296 3.03301 32.3662 3.23592C32.4028 3.43884 32.4028 3.67864 32.4028 3.93689V11.9981C32.4028 12.2932 32.3845 12.6621 32.3296 13.1049C32.293 13.5476 32.2198 14.0272 32.1282 14.5621C32.0367 15.0786 31.9269 15.632 31.7621 16.1854C31.5973 16.7388 31.4143 17.2738 31.1946 17.8087C30.9749 18.3252 30.7186 18.8233 30.4257 19.266C30.1328 19.7087 29.8033 20.0777 29.4188 20.3728C29.2174 20.5204 28.9978 20.6126 28.7964 20.668C28.5767 20.7049 28.3753 20.7233 28.174 20.668C27.9726 20.6126 27.7895 20.5573 27.6248 20.4651C27.46 20.3728 27.3135 20.2621 27.2037 20.1515C27.0572 20.0223 26.9474 19.8563 26.8925 19.6534C26.8376 19.4505 26.8193 19.2476 26.8193 19.0262C26.8193 18.8049 26.8742 18.5835 26.9657 18.3437C27.0389 18.1223 27.1488 17.901 27.2769 17.7165C27.8444 16.8864 28.2655 16.0563 28.5218 15.2447C28.7781 14.4146 28.9428 13.5291 29.0161 12.5884H26.0321C25.6293 12.5884 25.2815 12.5515 25.0252 12.4592C24.7689 12.3854 24.5492 12.2748 24.4028 12.1272C24.2563 11.9796 24.1648 11.832 24.1098 11.6476C24.0549 11.4631 24.0366 11.2602 24.0366 11.0388C24.0366 10.8544 24.0549 10.6884 24.1098 10.5039C24.1648 10.3194 24.2563 10.1534 24.4028 10.0243C24.5492 9.89515 24.7506 9.76602 25.0252 9.67379C25.2815 9.58155 25.6293 9.54466 26.0321 9.54466H29.071V5.32039H25.9954C25.5927 5.32039 25.2449 5.2835 24.9886 5.19126C24.7323 5.11748 24.5126 5.0068 24.3661 4.85922C24.2197 4.71165 24.1281 4.56408 24.0732 4.37961C24.0183 4.19515 24 3.99223 24 3.77087C24 3.58641 24.0183 3.42039 24.0732 3.23592C24.1281 3.05146 24.2197 2.88544 24.3661 2.75631C24.5126 2.60874 24.714 2.49806 24.9886 2.40583C25.2449 2.31359 25.5927 2.2767 25.9954 2.2767H30.7003L30.7186 2.25825ZM34.5264 3.91845C34.5264 3.18058 34.6912 2.68252 35.0024 2.40583C35.3136 2.12913 35.6798 2 36.0825 2C36.4853 2 36.8331 2.12913 37.1443 2.40583C37.4555 2.68252 37.6203 3.18058 37.6203 3.91845V9.00971H39.4693V3.91845C39.4693 3.18058 39.634 2.68252 39.9452 2.40583C40.2565 2.12913 40.6226 2 41.0253 2C41.4281 2 41.7759 2.12913 42.0871 2.40583C42.3984 2.68252 42.5631 3.18058 42.5631 3.91845V19.0447C42.5631 19.432 42.5265 19.7456 42.435 20.0039C42.3434 20.2621 42.2336 20.4466 42.0871 20.5942C41.9407 20.7417 41.7759 20.8524 41.5929 20.9078C41.4098 20.9631 41.2084 21 41.0253 21C40.824 21 40.6226 20.9631 40.4395 20.9078C40.2565 20.8524 40.0917 20.7417 39.9452 20.5942C39.7988 20.4466 39.6889 20.2437 39.5974 20.0039C39.5059 19.7456 39.4693 19.432 39.4693 19.0447V12.0718H37.6203V19.0447C37.6203 19.432 37.5837 19.7456 37.4921 20.0039C37.4006 20.2621 37.2908 20.4466 37.1443 20.5942C36.9978 20.7417 36.8331 20.8524 36.65 20.9078C36.4669 20.9631 36.2656 21 36.0825 21C35.8811 21 35.6798 20.9631 35.4967 20.9078C35.3136 20.8524 35.1489 20.7417 35.0024 20.5942C34.8559 20.4466 34.7461 20.2437 34.6546 20.0039C34.563 19.7456 34.5264 19.432 34.5264 19.0447V3.91845Z" fill="#222222"/>
<path d="M48.8057 17.3845H52.5769C52.9796 17.3845 53.3275 17.4214 53.5837 17.5136C53.84 17.6058 54.0597 17.7165 54.2062 17.8641C54.3526 18.0117 54.4442 18.1592 54.4991 18.3437C54.554 18.5282 54.5723 18.7126 54.5723 18.8786C54.5723 19.1 54.554 19.3029 54.4991 19.4874C54.4442 19.6718 54.3526 19.8379 54.2062 19.967C54.0597 20.1146 53.8584 20.2252 53.5837 20.299C53.3275 20.3728 52.9796 20.4282 52.5769 20.4282H47.0116C46.6089 20.4282 46.2793 20.3913 46.0413 20.299C45.8034 20.2252 45.6203 20.1146 45.5104 19.967C45.3823 19.8194 45.3091 19.6718 45.2725 19.4874C45.2358 19.3029 45.2358 19.1 45.2358 18.8786V11.0204C45.2358 10.799 45.2358 10.5961 45.2725 10.3932C45.3091 10.1903 45.3823 10.0058 45.5104 9.85825C45.6386 9.69223 45.8217 9.56311 46.0413 9.47087C46.2793 9.37864 46.5905 9.3233 47.0116 9.3233H50.4167V5.32039H47.2496C46.8468 5.32039 46.499 5.2835 46.2427 5.19126C45.9864 5.09903 45.7667 4.98835 45.6203 4.84078C45.4738 4.6932 45.3823 4.54563 45.3274 4.36117C45.2725 4.1767 45.2541 3.99223 45.2541 3.82621C45.2541 3.60485 45.2725 3.40194 45.3274 3.21748C45.3823 3.03301 45.4738 2.86699 45.6203 2.73786C45.7667 2.59029 45.9681 2.47961 46.2427 2.40583C46.5173 2.33204 46.8468 2.2767 47.2496 2.2767H52.1924C52.5952 2.2767 52.9247 2.33204 53.1627 2.42427C53.4007 2.5165 53.5837 2.64563 53.6936 2.81165C53.8217 2.97767 53.895 3.16214 53.9316 3.3466C53.9682 3.54951 53.9682 3.75243 53.9682 3.97379V10.633C53.9682 11.2602 53.7851 11.7029 53.4373 11.9796C53.0712 12.2563 52.5769 12.3854 51.9544 12.3854H48.7874V17.3845H48.8057ZM58.911 3.91845C58.911 3.18058 59.0941 2.68252 59.4419 2.40583C59.8081 2.12913 60.2291 2 60.6868 2C60.9248 2 61.1445 2.03689 61.3642 2.09223C61.5838 2.14757 61.7669 2.25825 61.9317 2.40583C62.0964 2.5534 62.2246 2.75631 62.3344 2.99612C62.4443 3.25437 62.4809 3.54951 62.4809 3.91845V19.0447C62.4809 19.432 62.4259 19.7456 62.3344 20.0039C62.2246 20.2621 62.0964 20.4466 61.9317 20.5942C61.7669 20.7417 61.5838 20.8524 61.3642 20.9078C61.1445 20.9631 60.9248 21 60.6868 21C60.4488 21 60.2291 20.9631 60.0094 20.9078C59.7898 20.8524 59.6067 20.7417 59.4419 20.5942C59.2772 20.4466 59.149 20.2437 59.0392 20.0039C58.9476 19.7456 58.8927 19.432 58.8927 19.0447V3.91845H58.911Z" fill="#222222"/>
<path d="M80.4767 2.22136C80.8794 2.22136 81.209 2.2767 81.4469 2.36893C81.6849 2.46117 81.868 2.59029 81.9778 2.75631C82.106 2.92233 82.1792 3.1068 82.2158 3.29126C82.2525 3.47573 82.2525 3.69709 82.2525 3.91845V18.8786C82.2525 19.1 82.2525 19.3029 82.2158 19.4874C82.1792 19.6718 82.106 19.8379 81.9778 19.967C81.8497 20.1146 81.6666 20.2252 81.4469 20.299C81.209 20.3728 80.8977 20.4282 80.4767 20.4282H74.4721C74.0693 20.4282 73.7398 20.3913 73.5018 20.299C73.2638 20.2252 73.0807 20.1146 72.9709 19.967C72.8427 19.8194 72.7695 19.6718 72.7329 19.4874C72.6963 19.3029 72.6963 19.1 72.6963 18.8786V3.91845C72.6963 3.69709 72.6963 3.49417 72.7329 3.29126C72.7695 3.08835 72.8427 2.90388 72.9709 2.75631C73.099 2.59029 73.2821 2.46117 73.5018 2.36893C73.7398 2.2767 74.051 2.22136 74.4721 2.22136H80.4767ZM78.7925 5.2835H76.1746V17.3845H78.7925V5.2835ZM86.3715 3.91845C86.3715 3.18058 86.5545 2.68252 86.9024 2.40583C87.2685 2.12913 87.6896 2 88.1472 2C88.3852 2 88.6049 2.03689 88.8246 2.09223C89.0443 2.14757 89.2273 2.25825 89.3921 2.40583C89.5569 2.5534 89.685 2.75631 89.7949 2.99612C89.9047 3.25437 89.9413 3.54951 89.9413 3.91845V19.0447C89.9413 19.432 89.8864 19.7456 89.7949 20.0039C89.685 20.2621 89.5569 20.4466 89.3921 20.5942C89.2273 20.7417 89.0443 20.8524 88.8246 20.9078C88.6049 20.9631 88.3852 21 88.1472 21C87.9093 21 87.6896 20.9631 87.4699 20.9078C87.2502 20.8524 87.0671 20.7417 86.9024 20.5942C86.7376 20.4466 86.6095 20.2437 86.4996 20.0039C86.4081 19.7456 86.3532 19.432 86.3532 19.0447V3.91845H86.3715Z" fill="#222222"/>
</svg>
